<svg version="1.1" viewBox="0.0 0.0 365.49343832021 370.4225721784777" fill="none" stroke="none" stroke-linecap="square" stroke-miterlimit="10" xmlns:xlink="http://www.w3.org/1999/xlink" xmlns="http://www.w3.org/2000/svg"><clipPath id="p.0"><path d="m0 0l365.49344 0l0 370.42258l-365.49344 0l0 -370.42258z" clip-rule="nonzero"/></clipPath><g clip-path="url(#p.0)"><path fill="#000000" fill-opacity="0.0" d="m0 0l365.49344 0l0 370.42258l-365.49344 0z" fill-rule="evenodd"/><path fill="#f4cccc" d="m100.93836 290.43524l0 26.137482l-93.354515 0l0 -26.137482z" fill-rule="evenodd"/><path fill="#ffd966" d="m122.83094 257.00787l0 26.137512l-115.24809 0l0 -26.137512z" fill-rule="evenodd"/><path fill="#38761d" d="m166.89632 156.42006l0 26.137497l-159.31238 0l0 -26.137497z" fill-rule="evenodd"/><path fill="#f4cccc" d="m100.93836 223.58136l0 26.137497l-93.354515 0l0 -26.137497z" fill-rule="evenodd"/><path fill="#38761d" d="m166.89632 323.8634l0 26.137512l-159.31238 0l0 -26.137512z" fill-rule="evenodd"/><path fill="#ffd966" d="m122.83094 190.07803l0 26.137497l-115.24809 0l0 -26.137497z" fill-rule="evenodd"/><path fill="#efefef" d="m63.613926 4.225907l198.96124 0l24.452972 24.452969l0 122.2619l-223.41422 0z" fill-rule="evenodd"/><path fill="#a64d79" d="m115.69533 118.56787l0 0c0 -4.8259964 3.6914902 -8.738243 8.245178 -8.738243l0 0c2.1867523 0 4.283951 0.9206314 5.8302155 2.559372c1.5462799 1.6387405 2.4149628 3.861351 2.4149628 6.178871l0 0c0 4.826004 -3.6914978 8.738251 -8.245178 8.738251l0 0c-4.553688 0 -8.245178 -3.9122467 -8.245178 -8.738251z" fill-rule="evenodd"/><path fill="#ead1dc" d="m150.20784 136.08142l0 0c0 -4.826004 3.6914978 -8.738251 8.245178 -8.738251l0 0c2.1867676 0 4.283951 0.92063904 5.8302307 2.559372c1.5462646 1.6387482 2.4149475 3.8613434 2.4149475 6.178879l0 0c0 4.826004 -3.6914825 8.738251 -8.245178 8.738251l0 0c-4.5536804 0 -8.245178 -3.9122467 -8.245178 -8.738251z" fill-rule="evenodd"/><path fill="#741b47" d="m157.16557 57.21109l0 0c0 -4.826 3.6914978 -8.738247 8.245178 -8.738247l0 0c2.1867523 0 4.283951 0.9206352 5.8302155 2.5593758c1.5462799 1.6387367 2.4149628 3.8613434 2.4149628 6.178871l0 0c0 4.826 -3.6914978 8.738251 -8.245178 8.738251l0 0c-4.5536804 0 -8.245178 -3.9122505 -8.245178 -8.738251z" fill-rule="evenodd"/><path fill="#c27ba0" d="m150.20784 96.645065l0 0c0 -4.8259964 3.6914978 -8.738243 8.245178 -8.738243l0 0c2.1867676 0 4.283951 0.9206314 5.8302307 2.559372c1.5462646 1.6387405 2.4149475 3.8613434 2.4149475 6.178871l0 0c0 4.826004 -3.6914825 8.738251 -8.245178 8.738251l0 0c-4.5536804 0 -8.245178 -3.9122467 -8.245178 -8.738251z" fill-rule="evenodd"/><path fill="#a64d79" d="m150.20784 17.775927l0 0c0 -4.826 3.6914978 -8.738246 8.245178 -8.738246l0 0c2.1867676 0 4.283951 0.92063427 5.8302307 2.559373c1.5462646 1.6387396 2.4149475 3.8613462 2.4149475 6.178873l0 0c0 4.826 -3.6914825 8.738247 -8.245178 8.738247l0 0c-4.5536804 0 -8.245178 -3.9122467 -8.245178 -8.738247z" fill-rule="evenodd"/><path fill="#ead1dc" d="m115.69533 79.17546l0 0c0 -4.8259964 3.6914902 -8.738243 8.245178 -8.738243l0 0c2.1867523 0 4.283951 0.9206314 5.8302155 2.559372c1.5462799 1.6387405 2.4149628 3.8613434 2.4149628 6.178871l0 0c0 4.8259964 -3.6914978 8.738243 -8.245178 8.738243l0 0c-4.553688 0 -8.245178 -3.9122467 -8.245178 -8.738243z" fill-rule="evenodd"/><path fill="#741b47" d="m190.80809 34.522335l0 0c0 -4.826002 3.6914978 -8.738247 8.245178 -8.738247l0 0c2.1867676 0 4.283951 0.9206333 5.8302307 2.559372c1.5462646 1.6387405 2.4149475 3.8613472 2.4149475 6.178875l0 0c0 4.826 -3.6914825 8.738243 -8.245178 8.738243l0 0c-4.5536804 0 -8.245178 -3.912243 -8.245178 -8.738243z" fill-rule="evenodd"/><path fill="#ead1dc" d="m186.5136 79.17427l0 0c0 -4.8259964 3.6914825 -8.738243 8.245178 -8.738243l0 0c2.1867523 0 4.283951 0.9206314 5.8302155 2.559372c1.5462799 1.6387405 2.4149628 3.861351 2.4149628 6.178871l0 0c0 4.826004 -3.6914978 8.738251 -8.245178 8.738251l0 0c-4.5536957 0 -8.245178 -3.9122467 -8.245178 -8.738251z" fill-rule="evenodd"/><path fill="#a64d79" d="m186.5136 123.82859l0 0c0 -4.826004 3.6914825 -8.738251 8.245178 -8.738251l0 0c2.1867523 0 4.283951 0.92063904 5.8302155 2.559372c1.5462799 1.6387405 2.4149628 3.861351 2.4149628 6.178879l0 0c0 4.8259964 -3.6914978 8.738243 -8.245178 8.738243l0 0c-4.5536957 0 -8.245178 -3.9122467 -8.245178 -8.738243z" fill-rule="evenodd"/><path fill="#a64d79" d="m115.69533 34.522335l0 0c0 -4.826002 3.6914902 -8.738247 8.245178 -8.738247l0 0c2.1867523 0 4.283951 0.9206333 5.8302155 2.559372c1.5462799 1.6387405 2.4149628 3.8613472 2.4149628 6.178875l0 0c0 4.826 -3.6914978 8.738243 -8.245178 8.738243l0 0c-4.553688 0 -8.245178 -3.912243 -8.245178 -8.738243z" fill-rule="evenodd"/><path fill="#000000" fill-opacity="0.0" d="m129.76823 124.73921l20.440948 11.338577" fill-rule="evenodd"/><path stroke="#000000" stroke-width="2.0" stroke-linejoin="round" stroke-linecap="butt" d="m129.76823 124.739204l9.94725 5.5177383" fill-rule="evenodd"/><path fill="#000000" stroke="#000000" stroke-width="2.0" stroke-linecap="butt" d="m138.11307 133.14574l9.539322 1.513794l-6.334488 -7.2913895z" fill-rule="evenodd"/><path fill="#000000" fill-opacity="0.0" d="m129.77072 112.389l22.86615 -9.574799" fill-rule="evenodd"/><path stroke="#000000" stroke-width="2.0" stroke-linejoin="round" stroke-linecap="butt" d="m129.77074 112.38901l11.797348 -4.9399414" fill-rule="evenodd"/><path fill="#000000" stroke="#000000" stroke-width="2.0" stroke-linecap="butt" d="m142.84401 110.49618l7.0959473 -6.5526886l-9.647797 0.45846558z" fill-rule="evenodd"/><path fill="#000000" fill-opacity="0.0" d="m132.18568 79.17546l20.440948 11.275589" fill-rule="evenodd"/><path stroke="#000000" stroke-width="2.0" stroke-linejoin="round" stroke-linecap="butt" d="m132.18568 79.17546l9.933548 5.4795227" fill-rule="evenodd"/><path fill="#000000" stroke="#000000" stroke-width="2.0" stroke-linecap="butt" d="m140.52364 87.547554l9.542862 1.4912872l-6.3516846 -7.276428z" fill-rule="evenodd"/><path fill="#000000" fill-opacity="0.0" d="m132.18568 79.17546l27.40158 -15.779526" fill-rule="evenodd"/><path stroke="#000000" stroke-width="2.0" stroke-linejoin="round" stroke-linecap="butt" d="m132.18568 79.17546l17.002579 -9.791138" fill-rule="evenodd"/><path fill="#000000" stroke="#000000" stroke-width="2.0" stroke-linecap="butt" d="m150.83679 72.247055l6.216751 -7.392044l-9.513824 1.6665878z" fill-rule="evenodd"/><path fill="#000000" fill-opacity="0.0" d="m129.77072 72.99659l28.692917 -46.48819" fill-rule="evenodd"/><path stroke="#000000" stroke-width="2.0" stroke-linejoin="round" stroke-linecap="butt" d="m129.77074 72.99659l22.390228 -36.276615" fill-rule="evenodd"/><path fill="#000000" stroke="#000000" stroke-width="2.0" stroke-linecap="butt" d="m154.9721 38.455032l1.9558868 -9.458578l-7.5781555 5.9884663z" fill-rule="evenodd"/><path fill="#000000" fill-opacity="0.0" d="m132.18568 34.522335l26.267715 -8.000002" fill-rule="evenodd"/><path stroke="#000000" stroke-width="2.0" stroke-linejoin="round" stroke-linecap="butt" d="m132.18568 34.52233l14.7883 -4.503868" fill-rule="evenodd"/><path fill="#000000" stroke="#000000" stroke-width="2.0" stroke-linecap="butt" d="m147.93643 33.17862l7.720001 -5.804453l-9.644897 -0.5158577z" fill-rule="evenodd"/><path fill="#000000" fill-opacity="0.0" d="m171.24097 63.389965l15.275589 15.77953" fill-rule="evenodd"/><path stroke="#000000" stroke-width="2.0" stroke-linejoin="round" stroke-linecap="butt" d="m171.24097 63.389965l6.9291077 7.157688" fill-rule="evenodd"/><path fill="#000000" stroke="#000000" stroke-width="2.0" stroke-linecap="butt" d="m175.79659 72.84535l8.686356 4.223427l-3.9393768 -8.818817z" fill-rule="evenodd"/><path fill="#000000" fill-opacity="0.0" d="m166.6982 17.775927l26.5197 10.582678" fill-rule="evenodd"/><path stroke="#000000" stroke-width="2.0" stroke-linejoin="round" stroke-linecap="butt" d="m166.6982 17.775927l15.374329 6.1351185" fill-rule="evenodd"/><path fill="#000000" stroke="#000000" stroke-width="2.0" stroke-linecap="butt" d="m180.84816 26.97924l9.65416 0.29571342l-7.205429 -6.432102z" fill-rule="evenodd"/><path fill="#000000" fill-opacity="0.0" d="m158.45302 105.383316l30.48819 12.251968" fill-rule="evenodd"/><path stroke="#000000" stroke-width="2.0" stroke-linejoin="round" stroke-linecap="butt" d="m158.45302 105.383316l19.353622 7.7774353" fill-rule="evenodd"/><path fill="#000000" stroke="#000000" stroke-width="2.0" stroke-linecap="butt" d="m176.57486 116.225975l9.653412 0.31908417l-7.1898346 -6.449524z" fill-rule="evenodd"/><path fill="#000000" fill-opacity="0.0" d="m166.6982 96.645065l22.236221 -11.307083" fill-rule="evenodd"/><path stroke="#000000" stroke-width="2.0" stroke-linejoin="round" stroke-linecap="butt" d="m166.6982 96.645065l11.539703 -5.86792" fill-rule="evenodd"/><path fill="#000000" stroke="#000000" stroke-width="2.0" stroke-linecap="butt" d="m179.73524 93.72178l6.592972 -7.0585403l-9.5876465 1.1692734z" fill-rule="evenodd"/><path fill="#000000" fill-opacity="0.0" d="m164.28325 142.2603l24.629913 -12.251968" fill-rule="evenodd"/><path stroke="#000000" stroke-width="2.0" stroke-linejoin="round" stroke-linecap="butt" d="m164.28325 142.2603l13.8858185 -6.9074097" fill-rule="evenodd"/><path fill="#000000" stroke="#000000" stroke-width="2.0" stroke-linecap="butt" d="m179.64037 138.31062l6.654999 -7.0000916l-9.597595 1.0846405z" fill-rule="evenodd"/><path fill="#ead1dc" d="m80.9067 100.04864l0 0c0 -4.8259964 3.6914902 -8.738243 8.245178 -8.738243l0 0c2.1867523 0 4.283951 0.9206314 5.830223 2.559372c1.5462646 1.6387405 2.4149551 3.8613434 2.4149551 6.178871l0 0c0 4.826004 -3.6914978 8.738251 -8.245178 8.738251l0 0c-4.553688 0 -8.245178 -3.9122467 -8.245178 -8.738251z" fill-rule="evenodd"/><path fill="#c27ba0" d="m222.81883 136.07788l0 0c0 -4.825989 3.6914978 -8.738243 8.245178 -8.738243l0 0c2.1867676 0 4.283951 0.9206314 5.8302307 2.5593796c1.5462646 1.6387329 2.4149475 3.8613434 2.4149475 6.1788635l0 0c0 4.826004 -3.6914825 8.738251 -8.245178 8.738251l0 0c-4.5536804 0 -8.245178 -3.9122467 -8.245178 -8.738251z" fill-rule="evenodd"/><path fill="#c27ba0" d="m80.630585 54.898712l0 0c0 -4.826 3.6914978 -8.738247 8.245178 -8.738247l0 0c2.18676 0 4.283951 0.9206352 5.830223 2.5593758c1.5462723 1.6387367 2.4149628 3.8613434 2.4149628 6.178871l0 0c0 4.826 -3.6914978 8.738247 -8.245186 8.738247l0 0c-4.5536804 0 -8.245178 -3.9122467 -8.245178 -8.738247z" fill-rule="evenodd"/><path fill="#741b47" d="m83.09917 17.772888l0 0c0 -4.826001 3.6914902 -8.738247 8.245178 -8.738247l0 0c2.18676 0 4.283951 0.92063427 5.830223 2.559373c1.5462723 1.6387396 2.4149551 3.8613462 2.4149551 6.178874l0 0c0 4.826 -3.6914902 8.738245 -8.245178 8.738245l0 0c-4.553688 0 -8.245178 -3.9122448 -8.245178 -8.738245z" fill-rule="evenodd"/><path fill="#c27ba0" d="m222.81883 96.6405l0 0c0 -4.826004 3.6914978 -8.738243 8.245178 -8.738243l0 0c2.1867676 0 4.283951 0.9206314 5.8302307 2.559372c1.5462646 1.6387329 2.4149475 3.8613434 2.4149475 6.178871l0 0c0 4.8259964 -3.6914825 8.738243 -8.245178 8.738243l0 0c-4.5536804 0 -8.245178 -3.9122467 -8.245178 -8.738243z" fill-rule="evenodd"/><path fill="#741b47" d="m229.93863 63.993046l0 0c0 -4.826 3.6914978 -8.738243 8.245178 -8.738243l0 0c2.1867676 0 4.283951 0.9206314 5.8302307 2.559372c1.5462646 1.6387405 2.4149475 3.8613472 2.4149475 6.178871l0 0c0 4.826 -3.6914825 8.738247 -8.245178 8.738247l0 0c-4.5536804 0 -8.245178 -3.9122467 -8.245178 -8.738247z" fill-rule="evenodd"/><path fill="#000000" fill-opacity="0.0" d="m97.17457 23.951761l18.519684 10.582678" fill-rule="evenodd"/><path stroke="#000000" stroke-width="2.0" stroke-linejoin="round" stroke-linecap="butt" d="m97.17457 23.951761l8.100769 4.629011" fill-rule="evenodd"/><path fill="#000000" stroke="#000000" stroke-width="2.0" stroke-linecap="butt" d="m103.63636 31.448982l9.519325 1.6348419l-6.241371 -7.3712635z" fill-rule="evenodd"/><path fill="#000000" fill-opacity="0.0" d="m97.12095 54.898712l20.976372 -14.204723" fill-rule="evenodd"/><path stroke="#000000" stroke-width="2.0" stroke-linejoin="round" stroke-linecap="butt" d="m97.12095 54.898716l11.040245 -7.4762" fill-rule="evenodd"/><path fill="#000000" stroke="#000000" stroke-width="2.0" stroke-linecap="butt" d="m110.01347 50.157825l5.6629105 -7.8244286l-9.367485 2.3538132z" fill-rule="evenodd"/><path fill="#000000" fill-opacity="0.0" d="m97.39706 100.04864l20.724411 12.346458" fill-rule="evenodd"/><path stroke="#000000" stroke-width="2.0" stroke-linejoin="round" stroke-linecap="butt" d="m97.39706 100.04864l10.415184 6.204796" fill-rule="evenodd"/><path fill="#000000" stroke="#000000" stroke-width="2.0" stroke-linecap="butt" d="m106.12151 109.091446l9.488106 1.8072281l-6.1066437 -7.4832535z" fill-rule="evenodd"/><path fill="#000000" fill-opacity="0.0" d="m94.705986 61.077587l20.97638 18.110233" fill-rule="evenodd"/><path stroke="#000000" stroke-width="2.0" stroke-linejoin="round" stroke-linecap="butt" d="m94.705986 61.077587l11.89328 10.268215" fill-rule="evenodd"/><path fill="#000000" stroke="#000000" stroke-width="2.0" stroke-linecap="butt" d="m104.440445 73.84628l9.028816 3.430832l-4.7111816 -8.431786z" fill-rule="evenodd"/><path fill="#000000" fill-opacity="0.0" d="m203.00395 79.17427l29.354324 -9.007874" fill-rule="evenodd"/><path stroke="#000000" stroke-width="2.0" stroke-linejoin="round" stroke-linecap="butt" d="m203.00395 79.17427l17.882324 -5.4874954" fill-rule="evenodd"/><path fill="#000000" stroke="#000000" stroke-width="2.0" stroke-linecap="butt" d="m221.85541 76.844894l7.707718 -5.820755l-9.645966 -0.49547577z" fill-rule="evenodd"/><path fill="#000000" fill-opacity="0.0" d="m204.8835 40.701206l27.46457 17.102364" fill-rule="evenodd"/><path stroke="#000000" stroke-width="2.0" stroke-linejoin="round" stroke-linecap="butt" d="m204.88348 40.701206l17.278091 10.75919" fill-rule="evenodd"/><path fill="#000000" stroke="#000000" stroke-width="2.0" stroke-linecap="butt" d="m220.41539 54.26461l9.450729 1.9934425l-5.9583282 -7.601879z" fill-rule="evenodd"/><path fill="#000000" fill-opacity="0.0" d="m203.00395 123.82859l22.236221 6.078743" fill-rule="evenodd"/><path stroke="#000000" stroke-width="2.0" stroke-linejoin="round" stroke-linecap="butt" d="m203.00395 123.82858l10.66095 2.9143906" fill-rule="evenodd"/><path fill="#000000" stroke="#000000" stroke-width="2.0" stroke-linecap="butt" d="m212.7938 129.92952l9.626068 -0.7931824l-7.88385 -5.579895z" fill-rule="evenodd"/><path fill="#000000" fill-opacity="0.0" d="m200.58899 117.64971l24.629929 -14.8346405" fill-rule="evenodd"/><path stroke="#000000" stroke-width="2.0" stroke-linejoin="round" stroke-linecap="butt" d="m200.58899 117.64972l14.350464 -8.643311" fill-rule="evenodd"/><path fill="#000000" stroke="#000000" stroke-width="2.0" stroke-linecap="butt" d="m216.64386 111.836235l6.070465 -7.512642l-9.479279 1.8529968z" fill-rule="evenodd"/><path fill="#3d85c6" d="m223.078 156.40889l54.07541 0l0 22.033783l-54.07541 0z" fill-rule="evenodd"/><path stroke="#b7b7b7" stroke-width="3.0" stroke-linejoin="round" stroke-linecap="butt" d="m223.078 156.40889l54.07541 0l0 22.033783l-54.07541 0z" fill-rule="evenodd"/><path fill="#3d85c6" d="m225.27907 218.05058l24.83664 -16.526184l24.836655 16.526184l-24.836655 16.526184z" fill-rule="evenodd"/><path stroke="#b7b7b7" stroke-width="3.0" stroke-linejoin="round" stroke-linecap="butt" d="m225.27907 218.05058l24.83664 -16.526184l24.836655 16.526184l-24.836655 16.526184z" fill-rule="evenodd"/><path fill="#3d85c6" d="m175.60577 266.68463l24.836655 -16.526184l24.83664 16.526184l-24.83664 16.526184z" fill-rule="evenodd"/><path stroke="#b7b7b7" stroke-width="3.0" stroke-linejoin="round" stroke-linecap="butt" d="m175.60577 266.68463l24.836655 -16.526184l24.83664 16.526184l-24.83664 16.526184z" fill-rule="evenodd"/><path fill="#3d85c6" d="m269.73727 309.54996l24.83664 -16.526184l24.83664 16.526184l-24.83664 16.526184z" fill-rule="evenodd"/><path stroke="#b7b7b7" stroke-width="3.0" stroke-linejoin="round" stroke-linecap="butt" d="m269.73727 309.54996l24.83664 -16.526184l24.83664 16.526184l-24.83664 16.526184z" fill-rule="evenodd"/><path fill="#3d85c6" d="m267.53622 252.78337l54.07541 0l0 22.033798l-54.07541 0z" fill-rule="evenodd"/><path stroke="#b7b7b7" stroke-width="3.0" stroke-linejoin="round" stroke-linecap="butt" d="m267.53622 252.78337l54.07541 0l0 22.033798l-54.07541 0z" fill-rule="evenodd"/><path fill="#000000" fill-opacity="0.0" d="m250.1157 178.44267l0 23.086609" fill-rule="evenodd"/><path stroke="#b7b7b7" stroke-width="3.0" stroke-linejoin="round" stroke-linecap="butt" d="m250.1157 178.44267l0 23.086609" fill-rule="evenodd"/><path fill="#000000" fill-opacity="0.0" d="m225.27907 218.05058l-24.850403 32.094482" fill-rule="evenodd"/><path stroke="#b7b7b7" stroke-width="3.0" stroke-linejoin="round" stroke-linecap="butt" d="m225.27907 218.05058l-24.850403 32.094482" fill-rule="evenodd"/><path fill="#000000" fill-opacity="0.0" d="m274.95236 218.05058l19.62204 34.740158" fill-rule="evenodd"/><path stroke="#b7b7b7" stroke-width="3.0" stroke-linejoin="round" stroke-linecap="butt" d="m274.95236 218.05058l19.62204 34.740158" fill-rule="evenodd"/><path fill="#000000" fill-opacity="0.0" d="m294.5739 274.81717l0 18.204712" fill-rule="evenodd"/><path stroke="#b7b7b7" stroke-width="3.0" stroke-linejoin="round" stroke-linecap="butt" d="m294.5739 274.81717l0 18.204712" fill-rule="evenodd"/><path fill="#3d85c6" d="m223.078 344.28275l54.07541 0l0 22.033783l-54.07541 0z" fill-rule="evenodd"/><path stroke="#b7b7b7" stroke-width="3.0" stroke-linejoin="round" stroke-linecap="butt" d="m223.078 344.28275l54.07541 0l0 22.033783l-54.07541 0z" fill-rule="evenodd"/><path fill="#3d85c6" d="m304.63318 344.28275l54.07541 0l0 22.033783l-54.07541 0z" fill-rule="evenodd"/><path stroke="#b7b7b7" stroke-width="3.0" stroke-linejoin="round" stroke-linecap="butt" d="m304.63318 344.28275l54.07541 0l0 22.033783l-54.07541 0z" fill-rule="evenodd"/><path fill="#000000" fill-opacity="0.0" d="m269.73727 309.54996l-19.62204 34.740143" fill-rule="evenodd"/><path stroke="#b7b7b7" stroke-width="3.0" stroke-linejoin="round" stroke-linecap="butt" d="m269.73727 309.54996l-19.62204 34.740143" fill-rule="evenodd"/><path fill="#000000" fill-opacity="0.0" d="m319.41055 309.54996l12.251984 34.740143" fill-rule="evenodd"/><path stroke="#b7b7b7" stroke-width="3.0" stroke-linejoin="round" stroke-linecap="butt" d="m319.41055 309.54996l12.251984 34.740143" fill-rule="evenodd"/></g></svg>